<svg width="22" height="22" viewBox="0 0 22 22" fill="none" xmlns="http://www.w3.org/2000/svg">
<mask id="mask0_113_111" style="mask-type:alpha" maskUnits="userSpaceOnUse" x="0" y="0" width="22" height="22">
<circle cx="11" cy="11" r="10.5" fill="#C4C4C4" stroke="#D6D6D6"/>
</mask>
<g mask="url(#mask0_113_111)">
<path d="M1.25133 0C0.558089 0 0 0.558089 0 1.25133V20.7487C0 21.4419 0.558089 22 1.25133 22H11.0667H20.7487C21.4419 22 22 21.4419 22 20.7487V1.25133C22 0.558089 21.4419 0 20.7487 0H11.0667H1.25133Z" fill="#354DC7"/>
<path d="M0 3.69153V5.60663L9.34149 11L0 16.3933V18.3084L11 11.9575L22 18.3084V16.3933L12.6585 11L22 5.60663V3.69153L11 10.0424L0 3.69153Z" fill="#C73535"/>
<path d="M9.10818 0V9.10818H0V12.8918H9.10818V22H11.0667H12.8918V12.8918H22V9.10818H12.8918V0H11.0667H9.10818Z" fill="#C73535"/>
<path d="M8.74031 0V8.31307L0 3.26678V4.11639L8.00889 8.74031H6.16346L0 5.18182V6.03148L4.69187 8.74031H0V9.47605H5.96624H7.43777H8.20288C8.70373 9.47605 9.01052 9.45515 9.47605 9.45515V8.73784V0H8.74031ZM12.524 0V8.73784V9.47918C12.9729 9.47918 13.3916 9.47605 13.7971 9.47605H14.5622H16.0338H22V8.74031H17.3081L22 6.03148V5.18182L15.8365 8.74031H13.9911L22 4.11639V3.26678L13.2597 8.31307V0H12.524ZM9.47605 12.5328C9.05191 12.5328 8.6083 12.5239 8.20277 12.5239H7.43772H5.96613H0V13.2596H4.69181L0 15.9685V16.8181L6.1634 13.2596H8.00889L0 17.8836V18.7332L8.74031 13.6869V22H9.47605V13.2621V12.5328ZM12.524 12.5328V13.2621V22H13.2597V13.6869L22 18.7332V17.8836L13.9911 13.2596H15.8366L22 16.8181V15.9685L17.3082 13.2596H22V12.5239H16.0339H14.5623H13.7972C13.332 12.5239 12.524 12.5328 12.524 12.5328V12.5328Z" fill="white"/>
<circle cx="11" cy="11" r="10.5" stroke="#DBDBDB"/>
</g>
</svg>
