<svg width="200" height="54" viewBox="0 0 200 54" fill="none" xmlns="http://www.w3.org/2000/svg">
<path d="M16.1094 22.1279C19.4238 22.8987 21.081 24.8513 21.081 27.9859C21.081 32.7904 17.317 35.1927 9.78897 35.1927C7.57939 35.1927 5.31842 35.1285 3.00606 35L3.27584 27.6005L3.00606 10.1807L11.8316 10.1422C14.3751 10.1422 16.3535 10.6817 17.7666 11.7608C19.1797 12.8142 19.8863 14.343 19.8863 16.347C19.8863 19.1218 18.6273 21.0488 16.1094 22.1279ZM14.5293 17.0407C14.5293 15.9102 14.1953 15.1137 13.5273 14.6513C12.8593 14.1631 11.6902 13.919 10.0202 13.919H8.13179L8.01617 20.6634L11.6389 20.779C13.5658 20.2908 14.5293 19.0447 14.5293 17.0407ZM10.6754 31.4544C12.294 31.4544 13.5401 31.1332 14.4137 30.4909C15.3129 29.8486 15.7626 28.9236 15.7626 27.7161C15.7626 25.8919 14.5807 24.7614 12.2169 24.3246L7.93909 24.4017L7.90055 27.138L8.01617 31.3002C8.91542 31.403 9.80182 31.4544 10.6754 31.4544ZM34.3478 17.0407C34.5791 17.0407 34.9002 17.0664 35.3113 17.1178V21.8581L34.7718 22.0508C34.335 21.871 33.8597 21.781 33.3458 21.781C31.8556 21.781 30.5067 22.7445 29.2992 24.6715V27.0995L29.569 35H24.4432L24.7515 27.6005L24.5203 17.4261L29.3763 17.0022L29.3377 20.5092H29.646C30.905 18.1969 32.4722 17.0407 34.3478 17.0407ZM40.6165 8.29229C41.4129 8.29229 42.0296 8.52352 42.4664 8.986C42.9288 9.44847 43.1601 10.0908 43.1601 10.913C43.1601 11.7865 42.916 12.4802 42.4278 12.9941C41.9397 13.5079 41.2716 13.7649 40.4238 13.7649C38.6767 13.7649 37.8031 12.8785 37.8031 11.1057C37.8031 10.2578 38.0472 9.57693 38.5354 9.06307C39.0492 8.54922 39.7429 8.29229 40.6165 8.29229ZM37.9187 35L38.1885 27.6005L37.9958 17.4261L43.0444 17.0022L42.8132 27.0995L43.0444 35H37.9187ZM55.2515 16.7324C57.05 16.7324 58.6301 17.0535 59.9918 17.6959L59.1439 21.781L58.72 21.9737C57.4097 21.2543 56.2406 20.8946 55.2129 20.8946C54.031 20.8946 53.119 21.3186 52.4766 22.1664C51.8343 23.0143 51.5131 24.2219 51.5131 25.7891C51.5131 27.5876 51.86 28.9622 52.5537 29.9128C53.2474 30.8635 54.2366 31.3388 55.5212 31.3388C56.6774 31.3388 57.9621 31.0176 59.3752 30.3753L59.7606 30.6836L59.2595 34.6531C57.718 35.1413 56.1379 35.3854 54.5192 35.3854C52.0527 35.3854 50.1257 34.5889 48.7383 32.996C47.3509 31.3773 46.6572 29.1292 46.6572 26.2516C46.6572 23.2712 47.4151 20.946 48.931 19.276C50.4469 17.5803 52.5537 16.7324 55.2515 16.7324ZM67.8869 7.94544L67.5786 27.0995L67.8484 35H62.7227L62.9924 27.5619L62.7612 8.33083L67.8869 7.94544ZM78.6394 17.0792L72.7814 25.1725C74.1688 27.4078 76.2499 30.401 79.0248 34.1521L78.9862 34.6917C78.1384 34.8715 76.5583 35.1028 74.2459 35.3854L73.7063 35.1542C71.4454 31.9682 69.4927 28.7952 67.8484 25.635V25.2881L72.3189 18.9291L73.2439 17.0792H78.6394ZM94.7289 31.2232C95.5511 31.2232 96.4118 31.0048 97.311 30.568L97.735 30.9534L97.234 33.998C95.9236 34.666 94.5876 35.0771 93.2259 35.2312C89.7573 34.8715 88.0231 33.1758 88.0231 30.1441L88.2158 26.9453L88.1772 20.3165H85.7878L85.5951 20.0468L85.8649 17.2334H88.1387V14.2659L92.8019 12.7628L93.1488 13.0712L93.0332 17.2334H97.6194L97.7735 17.5032L97.5423 20.3165H92.9561L92.7249 28.9493C92.7249 29.7715 92.879 30.3624 93.1873 30.7221C93.4957 31.0561 94.0095 31.2232 94.7289 31.2232ZM107.68 16.7324C110.301 16.7324 112.305 17.5032 113.692 19.0447C115.08 20.5863 115.773 22.8087 115.773 25.712C115.773 28.8466 115.028 31.2488 113.538 32.9189C112.048 34.5632 109.903 35.3854 107.102 35.3854C104.481 35.3854 102.477 34.6146 101.09 33.073C99.7026 31.5315 99.0089 29.309 99.0089 26.4057C99.0089 23.2712 99.754 20.8818 101.244 19.2374C102.734 17.5674 104.88 16.7324 107.68 16.7324ZM107.333 20.2009C106.1 20.2009 105.201 20.612 104.636 21.4342C104.096 22.2563 103.826 23.5795 103.826 25.4037C103.826 27.7675 104.109 29.4503 104.674 30.4524C105.239 31.4544 106.164 31.9554 107.449 31.9554C108.682 31.9554 109.569 31.5572 110.108 30.7607C110.673 29.9385 110.956 28.6025 110.956 26.7526C110.956 24.4145 110.661 22.7445 110.07 21.7425C109.504 20.7148 108.592 20.2009 107.333 20.2009ZM134.793 16.848C137.054 16.848 138.775 17.6188 139.957 19.1604C141.165 20.6762 141.768 22.7959 141.768 25.5193C141.768 28.6796 140.985 31.1204 139.418 32.8418C137.85 34.5375 135.679 35.3854 132.904 35.3854C131.594 35.3854 130.155 35.0899 128.588 34.499L125.89 35.4625L125.274 34.9615L125.543 27.639L125.312 8.33083L130.399 7.94544L130.245 19.6228H130.476C131.838 18.3382 133.277 17.4132 134.793 16.848ZM132.904 32.0325C134.189 32.0325 135.191 31.57 135.911 30.6451C136.63 29.7201 136.99 28.307 136.99 26.4057C136.99 22.7831 135.833 20.9717 133.521 20.9717C132.468 20.9717 131.363 21.5113 130.207 22.5904L130.13 26.9838L130.207 31.3388C131.157 31.8012 132.057 32.0325 132.904 32.0325ZM154.971 17.0407C155.202 17.0407 155.524 17.0664 155.935 17.1178V21.8581L155.395 22.0508C154.958 21.871 154.483 21.781 153.969 21.781C152.479 21.781 151.13 22.7445 149.923 24.6715V27.0995L150.192 35H145.067L145.375 27.6005L145.144 17.4261L150 17.0022L149.961 20.5092H150.269C151.528 18.1969 153.096 17.0407 154.971 17.0407ZM161.24 8.29229C162.036 8.29229 162.653 8.52352 163.09 8.986C163.552 9.44847 163.783 10.0908 163.783 10.913C163.783 11.7865 163.539 12.4802 163.051 12.9941C162.563 13.5079 161.895 13.7649 161.047 13.7649C159.3 13.7649 158.426 12.8785 158.426 11.1057C158.426 10.2578 158.671 9.57693 159.159 9.06307C159.673 8.54922 160.366 8.29229 161.24 8.29229ZM158.542 35L158.812 27.6005L158.619 17.4261L163.668 17.0022L163.437 27.0995L163.668 35H158.542ZM175.875 16.7324C177.673 16.7324 179.253 17.0535 180.615 17.6959L179.767 21.781L179.343 21.9737C178.033 21.2543 176.864 20.8946 175.836 20.8946C174.654 20.8946 173.742 21.3186 173.1 22.1664C172.458 23.0143 172.137 24.2219 172.137 25.7891C172.137 27.5876 172.483 28.9622 173.177 29.9128C173.871 30.8635 174.86 31.3388 176.145 31.3388C177.301 31.3388 178.585 31.0176 179.999 30.3753L180.384 30.6836L179.883 34.6531C178.341 35.1413 176.761 35.3854 175.143 35.3854C172.676 35.3854 170.749 34.5889 169.362 32.996C167.974 31.3773 167.281 29.1292 167.281 26.2516C167.281 23.2712 168.039 20.946 169.554 19.276C171.07 17.5803 173.177 16.7324 175.875 16.7324ZM188.51 7.94544L188.202 27.0995L188.472 35H183.346L183.616 27.5619L183.385 8.33083L188.51 7.94544ZM199.263 17.0792L193.405 25.1725C194.792 27.4078 196.873 30.401 199.648 34.1521L199.61 34.6917C198.762 34.8715 197.182 35.1028 194.869 35.3854L194.33 35.1542C192.069 31.9682 190.116 28.7952 188.472 25.635V25.2881L192.942 18.9291L193.867 17.0792H199.263Z" fill="white"/>
<path d="M6.05946 43.2792L8.46059 50.4713H7.54053L7.37223 49.7532L6.9683 48.519L5.35258 48.4854L3.89394 48.519L3.45635 49.7084L3.27683 50.4713H2.37921L5.01597 43.2792H6.05946ZM5.43112 47.7785L6.72145 47.756L5.55454 44.2104H5.476L4.17445 47.756L5.43112 47.7785ZM13.5758 43.2792L13.6431 43.3689L13.5646 44.0309L12.0386 44.0085H10.8381L10.8044 48.2273L10.8381 50.4713H9.94044L9.9741 48.3058L9.94044 43.2792H13.5758ZM19.0201 49.6859L19.0762 49.7757L19.0089 50.4713H14.9696L15.0257 48.3058L14.9696 43.2792H19.0201L19.065 43.3689L18.9977 44.0646L17.3034 44.0309L15.8784 44.0534L15.856 46.4096L17.2024 46.432L18.3918 46.3984L18.4591 46.4769L18.3805 47.1726L17.1239 47.1501L15.8448 47.1614L15.8335 48.2273L15.8672 49.7196L17.2922 49.7308L19.0201 49.6859ZM26.452 43.2792L26.4071 48.2273L26.4296 50.4713H25.5432L25.5881 48.3058L25.5768 47.2287L23.5796 47.2175L21.7507 47.2287L21.7395 48.2273L21.7732 50.4713H20.8868L20.9204 48.3058L20.8868 43.2792H21.7844L21.7507 46.4657L23.6582 46.4769L25.5768 46.4657L25.5432 43.2792H26.452ZM32.5703 43.2792L32.6376 43.3689L32.5703 44.0646L31.3136 43.9973H30.5843L30.5507 48.2273L30.5843 50.4713H29.6755L29.7428 48.3058L29.6867 43.9973H28.9574L27.6783 44.0646L27.6222 43.9748L27.6895 43.2792H32.5703ZM36.1458 43.2231C36.9013 43.2231 37.5558 43.4026 38.1094 43.7616L37.9298 44.5807L37.8289 44.6031C37.3277 44.1843 36.7517 43.9748 36.1009 43.9748C35.3903 43.9748 34.8443 44.2217 34.4628 44.7153C34.0813 45.2016 33.8905 45.9159 33.8905 46.8584C33.8905 47.8084 34.0813 48.534 34.4628 49.0351C34.8443 49.5363 35.3828 49.7869 36.0785 49.7869C36.7667 49.7869 37.3913 49.5588 37.9523 49.1025L38.0645 49.1586L37.9859 50.0113C37.3352 50.3704 36.6732 50.5499 35.9999 50.5499C35.035 50.5499 34.287 50.2395 33.7559 49.6186C33.2248 48.9903 32.9593 48.0964 32.9593 46.937C32.9593 45.7476 33.236 44.8313 33.7896 44.188C34.3431 43.5447 35.1285 43.2231 36.1458 43.2231ZM43.7029 43.2792L43.7702 43.3689L43.7029 44.0646L42.4463 43.9973H41.7169L41.6833 48.2273L41.7169 50.4713H40.8081L40.8754 48.3058L40.8193 43.9973H40.09L38.8109 44.0646L38.7548 43.9748L38.8221 43.2792H43.7029ZM48.1204 46.7238C49.1377 46.9257 49.6463 47.5055 49.6463 48.4629C49.6463 49.8318 48.6627 50.5162 46.6954 50.5162C46.0371 50.5162 45.5098 50.5013 45.1133 50.4713H45.1021L45.1582 48.3058L45.1021 43.2792L47.0993 43.2679C47.7726 43.2679 48.2887 43.4175 48.6477 43.7167C49.0143 44.016 49.1975 44.4498 49.1975 45.0183C49.1975 45.8486 48.8385 46.4171 48.1204 46.7238ZM48.2775 45.1193C48.2775 44.7303 48.169 44.4498 47.9521 44.2778C47.7426 44.0982 47.3985 44.0085 46.9198 44.0085H46.011L45.9885 46.4208L47.2228 46.4545C47.9259 46.2899 48.2775 45.8449 48.2775 45.1193ZM46.83 49.7645C47.4434 49.7645 47.9147 49.6485 48.2438 49.4166C48.5729 49.1848 48.7375 48.8519 48.7375 48.418C48.7375 47.685 48.2775 47.2661 47.3574 47.1614L45.9773 47.1726L45.9661 48.2273L45.9997 49.7308C46.2915 49.7532 46.5682 49.7645 46.83 49.7645ZM54.1056 43.2118C55.093 43.2118 55.8485 43.5148 56.3721 44.1207C56.9032 44.7266 57.1687 45.598 57.1687 46.735C57.1687 47.9617 56.8882 48.908 56.3272 49.5737C55.7662 50.232 54.9658 50.5611 53.9261 50.5611C52.9537 50.5611 52.2019 50.2469 51.6708 49.6186C51.1472 48.9903 50.8854 48.0964 50.8854 46.937C50.8854 45.7401 51.1622 44.8201 51.7157 44.1768C52.2767 43.5335 53.0733 43.2118 54.1056 43.2118ZM54.0495 43.9411C52.5535 43.9411 51.8054 44.9061 51.8054 46.836C51.8054 48.8481 52.5348 49.8542 53.9934 49.8542C55.4894 49.8542 56.2375 48.8706 56.2375 46.9033C56.2375 44.9285 55.5081 43.9411 54.0495 43.9411ZM62.4969 43.2231C63.4843 43.2231 64.2398 43.526 64.7634 44.1319C65.287 44.7378 65.5488 45.6167 65.5488 46.7687C65.5488 47.958 65.2608 48.8855 64.6848 49.5513C64.1088 50.217 63.301 50.5499 62.2612 50.5499C61.5057 50.5499 60.8363 50.3704 60.2528 50.0113L60.4323 49.181L60.5333 49.1586C61.042 49.5775 61.6366 49.7869 62.3173 49.7869C63.0055 49.7869 63.5478 49.5625 63.9443 49.1137C64.3407 48.6574 64.5614 48.0104 64.6063 47.1726L63.215 47.1501L61.2178 47.1838L61.1392 47.1053L61.2178 46.4096L63.2711 46.4433L64.6063 46.4208C64.4941 44.7976 63.7423 43.986 62.351 43.986C61.6329 43.986 60.9859 44.2104 60.4099 44.6592L60.2977 44.6144L60.365 43.7504C61.0158 43.3988 61.7264 43.2231 62.4969 43.2231ZM71.4672 43.2792L71.4223 48.2273L71.4448 50.4713H70.5584L70.592 48.3058L70.5584 43.986H68.6958L68.6285 44.6256C68.5013 46.0767 68.3517 47.21 68.1797 48.0253C68.0151 48.8407 67.8094 49.4466 67.5626 49.843C67.3157 50.232 66.9903 50.4826 66.5864 50.5948L66.3059 50.6284L66.1376 49.9103C66.6612 49.7158 67.0389 49.2521 67.2708 48.519C67.5027 47.7785 67.6972 46.4283 67.8543 44.4685L67.9665 43.3016L67.9553 43.2792H71.4672ZM73.8428 50.4713L73.8877 48.3058L73.8428 43.3128L74.7517 43.2567L74.6956 49.0464H74.7853L78.4768 43.2792H79.4193L79.3744 48.2273L79.4081 50.4713H78.4992L78.5441 48.3058V44.7041H78.4656L74.7629 50.4713H73.8428ZM85.5379 43.2792L85.6052 43.3689L85.5379 44.0646L84.2812 43.9973H83.5519L83.5182 48.2273L83.5519 50.4713H82.643L82.7104 48.3058L82.6543 43.9973H81.9249L80.6458 44.0646L80.5897 43.9748L80.657 43.2792H85.5379ZM92.5135 43.2792L92.4687 48.2273L92.4911 50.4713H91.6047L91.6496 48.3058L91.6384 47.2287L89.6411 47.2175L87.8122 47.2287L87.801 48.2273L87.8347 50.4713H86.9483L86.9819 48.3058L86.9483 43.2792H87.8459L87.8122 46.4657L89.7197 46.4769L91.6384 46.4657L91.6047 43.2792H92.5135ZM97.3759 43.2118C98.3633 43.2118 99.1188 43.5148 99.6424 44.1207C100.174 44.7266 100.439 45.598 100.439 46.735C100.439 47.9617 100.159 48.908 99.5976 49.5737C99.0365 50.232 98.2362 50.5611 97.1964 50.5611C96.224 50.5611 95.4722 50.2469 94.9411 49.6186C94.4175 48.9903 94.1557 48.0964 94.1557 46.937C94.1557 45.7401 94.4325 44.8201 94.986 44.1768C95.547 43.5335 96.3437 43.2118 97.3759 43.2118ZM97.3198 43.9411C95.8238 43.9411 95.0758 44.9061 95.0758 46.836C95.0758 48.8481 95.8051 49.8542 97.2637 49.8542C98.7598 49.8542 99.5078 48.8706 99.5078 46.9033C99.5078 44.9285 98.7785 43.9411 97.3198 43.9411ZM106.171 41.3941L106.631 41.7083C106.339 42.3591 105.752 42.6845 104.869 42.6845C104.009 42.6845 103.44 42.3591 103.164 41.7083L103.612 41.3941H103.736C103.886 41.8804 104.271 42.1235 104.892 42.1235C105.497 42.1235 105.886 41.8804 106.059 41.3941H106.171ZM102.266 50.4713L102.311 48.3058L102.266 43.3128L103.175 43.2567L103.119 49.0464H103.209L106.9 43.2792H107.843L107.798 48.2273L107.831 50.4713H106.922L106.967 48.3058V44.7041H106.889L103.186 50.4713H102.266ZM117.661 43.2792L117.616 48.2273L117.638 50.4713H116.752L116.797 48.3058L116.785 47.2287L114.788 47.2175L112.959 47.2287L112.948 48.2273L112.982 50.4713H112.095L112.129 48.3058L112.095 43.2792H112.993L112.959 46.4657L114.867 46.4769L116.785 46.4657L116.752 43.2792H117.661ZM124.101 49.6859L124.157 49.7757L124.089 50.4713H120.05L120.106 48.3058L120.05 43.2792H124.101L124.145 43.3689L124.078 44.0646L122.384 44.0309L120.959 44.0534L120.936 46.4096L122.283 46.432L123.472 46.3984L123.54 46.4769L123.461 47.1726L122.204 47.1501L120.925 47.1614L120.914 48.2273L120.948 49.7196L122.373 49.7308L124.101 49.6859ZM131.544 49.7308V51.8066L130.859 51.8851L130.736 50.4713H125.732L125.619 51.8066L124.924 51.8851V49.7308H125.53C125.971 49.4615 126.293 48.9603 126.495 48.2273C126.697 47.4942 126.872 46.2413 127.022 44.4685L127.134 43.2792H130.59L130.556 48.2273L130.568 49.7308H131.544ZM129.704 49.7308L129.737 48.3058L129.704 43.986H127.863L127.807 44.6256C127.68 46.174 127.516 47.3297 127.314 48.0926C127.119 48.8481 126.835 49.3942 126.461 49.7308H129.704ZM136.261 46.7238C137.278 46.9257 137.787 47.5055 137.787 48.4629C137.787 49.8318 136.803 50.5162 134.836 50.5162C134.178 50.5162 133.65 50.5013 133.254 50.4713H133.243L133.299 48.3058L133.243 43.2792L135.24 43.2679C135.913 43.2679 136.429 43.4175 136.788 43.7167C137.155 44.016 137.338 44.4498 137.338 45.0183C137.338 45.8486 136.979 46.4171 136.261 46.7238ZM136.418 45.1193C136.418 44.7303 136.309 44.4498 136.093 44.2778C135.883 44.0982 135.539 44.0085 135.06 44.0085H134.151L134.129 46.4208L135.363 46.4545C136.066 46.2899 136.418 45.8449 136.418 45.1193ZM134.971 49.7645C135.584 49.7645 136.055 49.6485 136.384 49.4166C136.713 49.1848 136.878 48.8519 136.878 48.418C136.878 47.685 136.418 47.2661 135.498 47.1614L134.118 47.1726L134.107 48.2273L134.14 49.7308C134.432 49.7532 134.709 49.7645 134.971 49.7645ZM139.576 50.4713L139.621 48.3058L139.576 43.3128L140.484 43.2567L140.428 49.0464H140.518L144.21 43.2792H145.152L145.107 48.2273L145.141 50.4713H144.232L144.277 48.3058V44.7041H144.198L140.496 50.4713H139.576ZM147.441 50.5723C147.127 50.52 146.85 50.4601 146.611 50.3928L146.599 50.2806C147.639 49.1137 148.608 47.9056 149.505 46.6565L146.79 43.2792H147.777L148.193 43.9075L150.425 46.634V46.7013C149.655 47.8458 148.698 49.1174 147.553 50.5162L147.441 50.5723ZM150.526 50.4713L150.56 48.3058L150.526 43.2792H151.413L151.379 48.2273L151.413 50.4713H150.526ZM154.51 50.5723L154.386 50.5162C153.234 49.1025 152.281 47.8308 151.525 46.7013V46.634L153.747 43.9075L154.173 43.2792H155.16L152.445 46.6565C153.343 47.9056 154.311 49.1137 155.351 50.2806L155.34 50.3928C155.101 50.4601 154.824 50.52 154.51 50.5723ZM156.8 50.4713L156.845 48.3058L156.8 43.3128L157.709 43.2567L157.653 49.0464H157.743L161.434 43.2792H162.377L162.332 48.2273L162.366 50.4713H161.457L161.502 48.3058V44.7041H161.423L157.721 50.4713H156.8ZM171.196 43.2792L171.903 50.4713H171.095L170.927 48.2834L170.545 44.7041H170.467L168.469 49.641H167.729L165.833 44.7041H165.743L165.361 48.2161L165.171 50.4713H164.408L165.159 43.2792H166.18L166.551 44.3787L168.11 48.4741H168.178L169.816 44.3114L170.186 43.2792H171.196ZM176.63 43.2118C177.617 43.2118 178.373 43.5148 178.897 44.1207C179.428 44.7266 179.693 45.598 179.693 46.735C179.693 47.9617 179.413 48.908 178.852 49.5737C178.291 50.232 177.49 50.5611 176.451 50.5611C175.478 50.5611 174.726 50.2469 174.195 49.6186C173.672 48.9903 173.41 48.0964 173.41 46.937C173.41 45.7401 173.687 44.8201 174.24 44.1768C174.801 43.5335 175.598 43.2118 176.63 43.2118ZM176.574 43.9411C175.078 43.9411 174.33 44.9061 174.33 46.836C174.33 48.8481 175.059 49.8542 176.518 49.8542C178.014 49.8542 178.762 48.8706 178.762 46.9033C178.762 44.9285 178.033 43.9411 176.574 43.9411ZM184.157 43.2231C184.912 43.2231 185.567 43.4026 186.12 43.7616L185.941 44.5807L185.84 44.6031C185.339 44.1843 184.763 43.9748 184.112 43.9748C183.401 43.9748 182.855 44.2217 182.474 44.7153C182.092 45.2016 181.902 45.9159 181.902 46.8584C181.902 47.8084 182.092 48.534 182.474 49.0351C182.855 49.5363 183.394 49.7869 184.09 49.7869C184.778 49.7869 185.402 49.5588 185.963 49.1025L186.076 49.1586L185.997 50.0113C185.346 50.3704 184.684 50.5499 184.011 50.5499C183.046 50.5499 182.298 50.2395 181.767 49.6186C181.236 48.9903 180.97 48.0964 180.97 46.937C180.97 45.7476 181.247 44.8313 181.801 44.188C182.354 43.5447 183.14 43.2231 184.157 43.2231ZM191.714 43.2792L191.781 43.3689L191.714 44.0646L190.457 43.9973H189.728L189.694 48.2273L189.728 50.4713H188.819L188.886 48.3058L188.83 43.9973H188.101L186.822 44.0646L186.766 43.9748L186.833 43.2792H191.714ZM193.102 50.4713L193.147 48.3058L193.102 43.3128L194.011 43.2567L193.955 49.0464H194.045L197.736 43.2792H198.678L198.634 48.2273L198.667 50.4713H197.758L197.803 48.3058V44.7041H197.725L194.022 50.4713H193.102Z" fill="white"/>
</svg>
