<svg width="50" height="50" viewBox="0 0 50 50" fill="none" xmlns="http://www.w3.org/2000/svg">
<path d="M49.5 25C49.5 38.531 38.531 49.5 25 49.5C11.469 49.5 0.499998 38.531 0.499999 25C0.499999 11.469 11.469 0.500001 25 0.500001C38.531 0.500002 49.5 11.469 49.5 25Z" fill="white" stroke="#E2E5E7"/>
<path fill-rule="evenodd" clip-rule="evenodd" d="M16 25.589C16 25.2162 16.3316 24.914 16.7406 24.914L30.514 24.914L28.0614 22.0944C27.8073 21.8022 27.8611 21.3777 28.1817 21.1461C28.5022 20.9145 28.968 20.9636 29.2221 21.2557L33 25.5988L29.2115 29.7563C28.9501 30.043 28.4832 30.0824 28.1686 29.8442C27.8539 29.6061 27.8107 29.1805 28.072 28.8937L30.4685 26.264L16.7406 26.264C16.3316 26.264 16 25.9617 16 25.589Z" fill="#0D2839"/>
</svg>
