<svg width="50" height="50" viewBox="0 0 50 50" fill="none" xmlns="http://www.w3.org/2000/svg">
<path d="M49.5 25C49.5 38.531 38.531 49.5 25 49.5C11.469 49.5 0.499998 38.531 0.499999 25C0.499999 11.469 11.469 0.500001 25 0.500001C38.531 0.500002 49.5 11.469 49.5 25Z" fill="white" stroke="#E2E5E7"/>
<path fill-rule="evenodd" clip-rule="evenodd" d="M33 25.411C33 25.7838 32.6684 26.086 32.2594 26.086L18.486 26.086L20.9386 28.9056C21.1927 29.1978 21.1389 29.6223 20.8183 29.8539C20.4978 30.0855 20.032 30.0364 19.7779 29.7443L16 25.4012L19.7885 21.2437C20.0499 20.957 20.5168 20.9176 20.8314 21.1558C21.1461 21.3939 21.1893 21.8195 20.928 22.1063L18.5315 24.736L32.2594 24.736C32.6684 24.736 33 25.0383 33 25.411Z" fill="#0D2839"/>
</svg>
