<svg width="20" height="20" viewBox="0 0 20 20" fill="none" xmlns="http://www.w3.org/2000/svg">
<path fill-rule="evenodd" clip-rule="evenodd" d="M10 19C14.9706 19 19 14.9706 19 10C19 5.02944 14.9706 1 10 1C5.02944 1 1 5.02944 1 10C1 14.9706 5.02944 19 10 19ZM10 20C15.5228 20 20 15.5228 20 10C20 4.47715 15.5228 0 10 0C4.47715 0 0 4.47715 0 10C0 15.5228 4.47715 20 10 20Z" fill="#0D2839"/>
<path d="M10.7566 11.4705H6V10.5H10.7566C11.2205 10.5 11.6015 10.4279 11.8994 10.2837C12.1974 10.1394 12.4166 9.93544 12.5571 9.6717C12.7018 9.40797 12.7741 9.09684 12.7741 8.73832C12.7741 8.44574 12.706 8.16552 12.5698 7.89766C12.4379 7.62981 12.2229 7.40934 11.925 7.23626C11.6313 7.06319 11.2418 6.97665 10.7566 6.97665H8.54749V15H7.32163V6H10.7566C11.4589 6 12.0505 6.11745 12.5315 6.35234C13.0125 6.5831 13.3764 6.90453 13.6233 7.31662C13.8744 7.72459 14 8.19437 14 8.72596C14 9.30288 13.8744 9.79739 13.6233 10.2095C13.3764 10.6174 13.0125 10.9306 12.5315 11.149C12.0505 11.3633 11.4589 11.4705 10.7566 11.4705ZM10.68 12.3173V13.294H6V12.3173H10.68Z" fill="#0D2839"/>
</svg>
