<svg width="26" height="26" viewBox="0 0 26 26" fill="none" xmlns="http://www.w3.org/2000/svg">
<path fill-rule="evenodd" clip-rule="evenodd" d="M13 24C19.0751 24 24 19.0751 24 13C24 6.92487 19.0751 2 13 2C6.92487 2 2 6.92487 2 13C2 19.0751 6.92487 24 13 24ZM13 26C20.1797 26 26 20.1797 26 13C26 5.8203 20.1797 0 13 0C5.8203 0 0 5.8203 0 13C0 20.1797 5.8203 26 13 26Z" fill="white"/>
<path d="M18.9594 9.08125L16.8469 19.0437C16.6875 19.7469 16.2719 19.9219 15.6812 19.5906L12.4625 17.2187L10.9094 18.7125C10.7375 18.8844 10.5937 19.0281 10.2625 19.0281L10.4937 15.75L16.4594 10.3594C16.7187 10.1281 16.4031 10 16.0562 10.2312L8.68123 14.875L5.50623 13.8812C4.8156 13.6656 4.8031 13.1906 5.64998 12.8594L18.0687 8.075C18.6437 7.85938 19.1469 8.20313 18.9594 9.08125Z" fill="white"/>
</svg>
