<svg width="26" height="26" viewBox="0 0 26 26" fill="none" xmlns="http://www.w3.org/2000/svg">
<path fill-rule="evenodd" clip-rule="evenodd" d="M22.2545 3.92349C19.8379 1.50412 16.6242 0.171172 13.2002 0.169769C6.14531 0.169769 0.403309 5.9113 0.400555 12.9684C0.399568 15.2244 0.988965 17.4263 2.1091 19.3674L0.293213 26L7.0785 24.2201C8.94801 25.2398 11.0529 25.7773 13.1952 25.778H13.2004C13.2008 25.778 13.2 25.778 13.2005 25.778C20.2547 25.778 25.997 20.0359 26 12.9787C26.0012 9.55855 24.6711 6.34275 22.2545 3.92349ZM13.2003 23.6164H13.196C11.2871 23.6157 9.41473 23.1027 7.78132 22.1335L7.39289 21.903L3.3664 22.9591L4.44118 19.0334L4.1882 18.6308C3.1233 16.937 2.56086 14.9793 2.5617 12.9692C2.56398 7.10355 7.33652 2.33153 13.2046 2.33153C16.0461 2.33242 18.7173 3.4405 20.7259 5.45138C22.7344 7.46226 23.8399 10.1352 23.8388 12.9778C23.8364 18.8438 19.064 23.6164 13.2003 23.6164Z" fill="white"/>
<path fill-rule="evenodd" clip-rule="evenodd" d="M19.0357 15.6487C18.7159 15.4886 17.1435 14.715 16.8503 14.6082C16.5572 14.5015 16.3439 14.4481 16.1308 14.7683C15.9176 15.0884 15.3047 15.8088 15.1181 16.0223C14.9316 16.2356 14.7449 16.2625 14.4252 16.1022C14.1054 15.9422 13.0749 15.6045 11.8533 14.5149C10.9025 13.6668 10.2607 12.6196 10.0741 12.2993C9.88754 11.9792 10.0542 11.8061 10.2143 11.6466C10.3582 11.5033 10.5342 11.2731 10.6941 11.0863C10.854 10.8997 10.9073 10.7661 11.0139 10.5528C11.1205 10.3394 11.0673 10.1526 10.9873 9.99255C10.9073 9.83247 10.2677 8.25828 10.0012 7.61781C9.74154 6.99428 9.47791 7.07876 9.28157 7.06884C9.0953 7.05954 8.88181 7.05762 8.66864 7.05762C8.45546 7.05762 8.10891 7.13768 7.81582 7.45779C7.52268 7.778 6.69641 8.55179 6.69641 10.1258C6.69641 11.7001 7.84242 13.2208 8.00234 13.4342C8.16221 13.6478 10.2575 16.878 13.4657 18.2633C14.2288 18.5929 14.8245 18.7896 15.289 18.937C16.0551 19.1805 16.7523 19.1461 17.3034 19.0637C17.9179 18.9719 19.1956 18.2901 19.4621 17.5431C19.7286 16.796 19.7286 16.1555 19.6486 16.0222C19.5687 15.8889 19.3555 15.8088 19.0357 15.6487Z" fill="white"/>
<clipPath id="clip0_9_50">
<rect width="26" height="26" fill="white"/>
</clipPath>
</svg>
